<svg width="19" height="20" viewBox="0 0 19 20" fill="none" xmlns="http://www.w3.org/2000/svg">
<path d="M9.49992 2.08334C5.122 2.08334 1.58325 5.62209 1.58325 10C1.58325 14.3779 5.122 17.9167 9.49992 17.9167C13.8778 17.9167 17.4166 14.3779 17.4166 10C17.4166 5.62209 13.8778 2.08334 9.49992 2.08334ZM9.49992 16.3333C6.00867 16.3333 3.16659 13.4913 3.16659 10C3.16659 6.50876 6.00867 3.66668 9.49992 3.66668C12.9912 3.66668 15.8333 6.50876 15.8333 10C15.8333 13.4913 12.9912 16.3333 9.49992 16.3333ZM12.342 6.04168L9.49992 8.88376L6.65783 6.04168L5.54159 7.15793L8.38367 10L5.54159 12.8421L6.65783 13.9583L9.49992 11.1163L12.342 13.9583L13.4583 12.8421L10.6162 10L13.4583 7.15793L12.342 6.04168Z" fill="#C21405"/>
</svg>
